<?xml version="1.0" encoding="utf-8"?>
<!-- Generator: Adobe Illustrator 15.1.0, SVG Export Plug-In . SVG Version: 6.00 Build 0)  -->
<!DOCTYPE svg PUBLIC "-//W3C//DTD SVG 1.1//EN" "http://www.w3.org/Graphics/SVG/1.1/DTD/svg11.dtd">
<svg version="1.1" id="Layer_1" xmlns="http://www.w3.org/2000/svg" xmlns:xlink="http://www.w3.org/1999/xlink" x="0px" y="0px"
	 width="300px" height="146.667px" viewBox="1394.5 1387.5 300 146.667" enable-background="new 1394.5 1387.5 300 146.667"
	 xml:space="preserve">
<g id="Layer_1_1_">
</g>
<g id="Layer_2" display="none">
	<rect x="413.768" y="1664.596" display="inline" fill="none" width="886.088" height="842.943"/>
	<text transform="matrix(1 0 0 1 413.7681 2394.5918)" display="inline" font-family="'Nobel-Regular'" font-size="1000">O</text>
	<rect x="1168.186" y="1664.596" display="inline" fill="none" width="1043.093" height="956.649"/>
	<text transform="matrix(1 0 0 1 1168.1851 2394.5908)" display="inline" font-family="'Nobel-Regular'" font-size="1000">W</text>
	<rect x="2077.891" y="1664.596" display="inline" fill="none" width="886.088" height="842.943"/>
	<text transform="matrix(1 0 0 1 2077.8906 2394.5918)" display="inline" font-family="'Nobel-Regular'" font-size="1000">P</text>
</g>
<g id="Layer_2_copy">
	<g>
		<path fill="#FAA31D" d="M1517.543,1425.86c-2.925-7.336-7.017-13.715-12.279-19.138s-11.59-9.673-18.978-12.758
			c-7.391-3.083-15.604-4.625-24.64-4.625c-8.4,0-16.214,1.515-23.443,4.545c-7.231,3.03-13.476,7.231-18.739,12.599
			c-5.263,5.37-9.384,11.697-12.36,18.978c-2.978,7.284-4.465,15.178-4.465,23.683c0,8.826,1.54,16.932,4.625,24.32
			c3.083,7.392,7.336,13.743,12.758,19.059c5.422,5.317,11.774,9.488,19.058,12.519c2.63,1.095,5.329,1.986,8.092,2.684
			c0.11-0.297,0.226-0.593,0.35-0.886c0.964-2.297,2.039-4.538,3.045-6.813c0.474-1.214,0.869-2.454,1.1-3.743
			c0.213-1.188,0.9-2.34,1.776-3.295c-2.533-0.553-5.009-1.343-7.425-2.379c-5.21-2.233-9.808-5.343-13.795-9.33
			c-3.987-3.986-7.152-8.716-9.489-14.193c-2.34-5.475-3.508-11.455-3.508-17.941c0-6.379,1.037-12.28,3.11-17.702
			s4.969-10.072,8.691-13.955c3.72-3.88,8.213-6.937,13.476-9.17s11.029-3.349,17.304-3.349c6.379,0,12.252,1.116,17.622,3.349
			c5.368,2.233,9.968,5.29,13.795,9.17c3.828,3.882,6.803,8.507,8.931,13.875c2.126,5.37,3.189,11.191,3.189,17.463
			c0,7.017-1.171,13.292-3.508,18.818c-2.34,5.53-5.478,10.261-9.409,14.194c-3.935,3.935-8.48,6.938-13.636,9.011
			c-3.033,1.219-6.167,2.074-9.4,2.575c1.689,3.708,3.056,7.534,4.533,11.328c0.45,1.157,0.9,2.321,1.323,3.492
			c3.542-0.766,6.983-1.858,10.322-3.282c7.229-3.082,13.528-7.336,18.898-12.758c5.368-5.423,9.621-11.774,12.759-19.058
			c3.135-7.282,4.704-15.176,4.704-23.683C1521.929,1441.065,1520.467,1433.196,1517.543,1425.86z"/>
	</g>
	<g>
		<path fill="#38BDEE" d="M1609.005,1472.746c-0.426-2.232-0.745-3.772-0.957-4.625l-23.283-76.869h-10.526l-24.081,76.231
			c-0.319,1.064-0.745,2.766-1.275,5.104c-0.427-2.232-0.745-3.88-0.957-4.944l-20.254-76.391h-15.629l30.62,116.42h10.525
			l24.081-77.667c0.424-1.276,0.902-3.242,1.436-5.9c0.424,2.447,0.902,4.413,1.436,5.9l23.603,77.667h5.3v-35.118
			C1609.029,1472.619,1609.018,1472.682,1609.005,1472.746z"/>
	</g>
	<g>
		<path fill="#A4CD39" d="M1682.065,1440.452c-1.913,4.201-4.465,7.894-7.654,11.083c-3.189,3.19-6.913,5.717-11.164,7.576
			c-4.254,1.861-8.719,2.791-13.396,2.791h-22.009v45.771h-15.947v-116.42h34.926c5.846,0,11.136,0.932,15.868,2.791
			c4.729,1.862,8.743,4.386,12.04,7.576c3.295,3.189,5.821,6.964,7.575,11.323c1.755,4.361,2.632,9.09,2.632,14.194
			C1684.937,1431.815,1683.979,1436.253,1682.065,1440.452z M1661.972,1411.546c-4.254-3.429-10.103-5.143-17.543-5.143h-16.586
			v40.348h17.543c6.698,0,12.2-1.767,16.506-5.3c4.306-3.534,6.459-8.622,6.459-15.271
			C1668.351,1419.852,1666.223,1414.975,1661.972,1411.546z"/>
	</g>
	<rect x="1402.676" y="1518.901" fill="none" width="231.883" height="26.474"/>
	<text transform="matrix(1 0 0 1 1402.6758 1528.6074)" font-family="'TwCenMT-Regular'" font-size="15.31" letter-spacing="1">Oregon Wellness Partners</text>
</g>
<g id="Layer_4">
	<g id="tree1_1_">
		<g>
			<path fill="#FAA31D" d="M1438.198,1452.572c0,0,8.694,8.425,14.413,14.728c4.871,5.367,5.386,6.733,4.488,9.51
				c-1.387,4.292-9.512,29.305-9.512,29.305s7.537-11.15,9.451-13.583c2.364-3.009,3.847-4.797,5.583-4.583
				c1.649-0.011,2.471,1.226,4.086,3.859c1.493,2.434,7.765,14.307,7.765,14.307s-5.316-26.494-5.369-29.688
				c-0.084-5.059,3.816-9.544,6.668-13.607c2.163-3.082,9.47-13.77,9.47-13.77s-10.645,9.941-14.873,13.562
				c-2.01,1.721-3.78,2.548-5.342,2.818c-3.904,0.675-6.359-0.761-10.88-3.134
				C1449.624,1459.923,1438.198,1452.572,1438.198,1452.572z"/>
			<path fill="#FAA31D" d="M1468.045,1457.236c-0.207,2.888-2.715,5.063-5.604,4.857c-2.887-0.206-5.063-2.715-4.856-5.604
				c0.206-2.888,2.715-5.062,5.603-4.856C1466.076,1451.84,1468.25,1454.348,1468.045,1457.236z"/>
		</g>
		<g>
			<path fill="#A5CD39" d="M1433.142,1461.803c4.693,1.871,9.165,2.041,11.809,1.885c-1.412-2.644-3.899-4.841-6.957-5.379
				c-3.286-0.578-6.852,0.204-9.67-1.629c0.904,3.043,2.143,7.164,5.487,8.869c2.975,1.518,7.353,2.401,11.572-0.111
				C1442.229,1465.393,1437.044,1465.039,1433.142,1461.803z"/>
			<path fill="#A5CD39" d="M1477.048,1475.297c1.918,0.661,5.226,0.174,5.226,0.174s-0.625-3.427-2.517-4.314
				c-1.563-0.732-4.187-0.849-5.828-0.584C1473.938,1472.341,1474.588,1474.45,1477.048,1475.297z"/>
			<path fill="#A5CD39" d="M1485.749,1454.906c4.622,3.465,7.065-0.434,10.834-1.055c-1.567-1.069-2.745-2.123-5.026-2.494
				C1488.441,1450.85,1486.798,1452.776,1485.749,1454.906z"/>
			<path fill="#A5CD39" d="M1452.494,1471.735c-3.08,1.801-3.524,3.62-2.42,6.839c0.707-1.127,2.32-1.16,3.025-2.718
				C1453.54,1474.877,1453.588,1472.923,1452.494,1471.735z"/>
			<path fill="#A5CD39" d="M1451.138,1468.905c-5.077-1.28-8.356,0.451-10.51,5.698c2.16-0.567,4.047,0.325,6.226-0.768
				C1449.317,1472.604,1449.566,1470.131,1451.138,1468.905z"/>
			<path fill="#A5CD39" d="M1437.146,1454.423c-2.315,0.009-3.307,1.283-5.719,0.223c-1.456-0.638-2.743-1.639-4.073-3.501
				c1.233-0.765,4.589-2.106,6.7-0.527C1435.796,1451.923,1436.428,1452.908,1437.146,1454.423z"/>
			<path fill="#A5CD39" d="M1463.711,1417.213c0.063-2.509-1.007-4.018-3.174-5.592c-2.648,4.464-2.98,5.862,0.539,10.771
				C1461.077,1422.391,1463.648,1419.683,1463.711,1417.213z"/>
			<path fill="#A5CD39" d="M1437.869,1434.771c-0.269-2.375,0.289-5.898-5.715-6.268
				C1433.414,1430,1432.127,1433.767,1437.869,1434.771z"/>
			<path fill="#A5CD39" d="M1486.161,1436.13c-0.706-2.721-0.446-7.282,5.823-7.84
				C1492.176,1434.74,1488.007,1434.377,1486.161,1436.13z"/>
			<path fill="#A5CD39" d="M1475.459,1422.175c-0.425-1.896-0.722-5.456,4.311-5.805
				C1478.668,1417.753,1480.385,1421.64,1475.459,1422.175z"/>
			<path fill="#A5CD39" d="M1483.858,1435.966c-3.414,4.309-11.259,3.101-13.994,10.507c-0.723,1.959-0.482,5.54-0.011,7.167
				c1.7-6.271,6.327-9.217,8.68-10.885c-2.161,2.684-7.084,7.755-7.847,14.164c2.461-2.921,7.072-3.959,10.685-8.52
				C1484.208,1444.818,1484.228,1439.26,1483.858,1435.966z"/>
			<path fill="#A5CD39" d="M1447.695,1446.37c0,0,5.845,2.46,6.979,7.503c0.551-2.623,1.287-5.161-0.243-7.876
				c-1.505-2.672-4.289-3.942-7.032-4.977c-2.238-0.843-4.428-1.875-6.269-3.252c-0.279,7.202,0.947,11.074,2.46,12.915
				c4.111,5.003,7.426,4.263,10.656,7.317C1453.746,1452.081,1447.695,1446.37,1447.695,1446.37z"/>
			<path fill="#A5CD39" d="M1485.107,1420.199c-3.27,2.491-8.182,3.396-11.095,6.144c-2.734,2.581-2.962,6.489-1.467,9.723
				c0.387-2.719,3.168-6.72,8.095-9.669c-3.578,4.126-5.897,6.809-7.12,11.281c0.432-0.084,4.236-0.861,6.405-2.5
				C1485.612,1430.879,1485.593,1423.968,1485.107,1420.199z"/>
			<path fill="#A5CD39" d="M1485.868,1458.848c-3.349,0.283-7.704,3.336-8.099,6.943c-0.07,0.06-0.139,0.114-0.204,0.167
				c3.927,0.597,8.048-1.76,9.24-2.677c-2.273,3.646-7.636,4.959-10.407,4.016c3.55,3.595,10.041,2.737,12.621-1.44
				c1.581-2.561,2.485-5.568,5.781-6.372C1492.195,1458.959,1489.56,1458.535,1485.868,1458.848z"/>
			<path fill="#A5CD39" d="M1449.325,1432.737c-1.469-2.185-2.736-3.739-5.259-6.509c3.178,1.895,7.032,5.417,9.012,10.105
				c0.017-0.092,0.032-0.185,0.049-0.28c0.58-3.14-0.342-5.107-1.573-6.973c-2.655-4.023-10.686-5.748-11.05-10.201
				c0,0-2.497,5.05-0.829,11.607c1.083,4.256,5.981,6.695,8.998,8.01c1.491,0.651,3.816,0.849,4.674,2.187
				c-0.023-0.082-0.046-0.162-0.067-0.24C1451.583,1437.093,1450.458,1434.421,1449.325,1432.737z"/>
			<path fill="#A5CD39" d="M1432.143,1440.946c2.939,3.686,5.074,5.223,7.147,6.827c-0.12-2.09,0.922-5.233-0.926-7.993
				c-0.977-1.458-3.036-2.13-4.611-2.795c-1.465-0.62-3.006-1.652-4.668-2.841c-1.14,5.021-0.14,9.785,1.924,11.96
				c2.766,2.915,5.636,3.077,7.708,3.097C1436.211,1447.696,1433.767,1444.83,1432.143,1440.946z"/>
			<path fill="#A5CD39" d="M1495.35,1435.447c-6.53,1.955-9.589,4.814-8.655,11.931c1.393-2.007,3.987-4.021,6.136-7.008
				c-1.683,3.73-3.235,6.244-5.534,8.896c2.262-0.277,6.342-1.326,7.903-4.699
				C1496.315,1442.157,1496.005,1438.356,1495.35,1435.447z"/>
			<path fill="#A5CD39" d="M1456.037,1418.378c-1.809-2.669-8.56-3.71-8.56-3.71s-0.901,5.846,2.353,9.025
				c1.979,1.934,4.511,2.098,6.026,4.851c0.015-0.023,0.029-0.046,0.044-0.07c-0.658-5.98-3.743-9.013-4.893-10.179
				c2.571,1.294,5.327,4.576,5.633,8.775c0.458-1.155,0.652-2.386,0.809-3.464
				C1457.71,1421.821,1456.981,1419.773,1456.037,1418.378z"/>
			<path fill="#A5CD39" d="M1463.736,1422.582c-5.367,6.396-7.826,10.365-7.96,16.231c-0.163,7.042,6.471,9.952,6.975,10.163
				c-1.246-2.942-3.692-10.443-0.174-18.839c-1.652,9.633,0.623,14.65,2.417,17.745c1.171-0.743,2.569-1.897,3.572-3.579
				C1473.634,1435.802,1465.61,1428.455,1463.736,1422.582z"/>
			<path fill="#A5CD39" d="M1470.52,1412.525c0.08-0.223-3.896,3.208-4.271,7.859c-0.235,2.906,1.204,4.348,2.765,6.467
				c-0.475-3.07-0.157-6.726,0.567-8.909c-0.1,2.019,0.295,6.064,0.56,8.144c1.21-1.424,3.078-2.761,3.242-4.967
				C1473.623,1417.906,1471.605,1415.106,1470.52,1412.525z"/>
		</g>
	</g>
</g>
</svg>
