<?xml version="1.0" encoding="utf-8"?>
<!-- Generator: Adobe Illustrator 15.1.0, SVG Export Plug-In  -->
<!DOCTYPE svg PUBLIC "-//W3C//DTD SVG 1.1//EN" "http://www.w3.org/Graphics/SVG/1.1/DTD/svg11.dtd" [
	<!ENTITY ns_flows "http://ns.adobe.com/Flows/1.0/">
]>
<svg version="1.1"
	 xmlns="http://www.w3.org/2000/svg" xmlns:xlink="http://www.w3.org/1999/xlink" xmlns:a="http://ns.adobe.com/AdobeSVGViewerExtensions/3.0/"
	 x="0px" y="0px" width="200px" height="100px" viewBox="-3.371 -2.458 200 100" enable-background="new -3.371 -2.458 200 100"
	 xml:space="preserve">
<defs>
</defs>
<path fill="#A4CD39" d="M191.81,34.554c-1.285,2.817-2.994,5.293-5.134,7.433c-2.14,2.138-4.635,3.832-7.485,5.079
	c-2.853,1.248-5.847,1.871-8.981,1.871H155.45v30.69h-10.693V1.564h23.419c3.921,0,7.468,0.625,10.64,1.872
	c3.172,1.249,5.863,2.94,8.074,5.08c2.209,2.138,3.902,4.669,5.079,7.592c1.177,2.924,1.765,6.096,1.765,9.517
	C193.733,28.763,193.091,31.739,191.81,34.554z M178.335,15.172c-2.854-2.299-6.773-3.448-11.764-3.448H155.45v27.054h11.764
	c4.49,0,8.18-1.184,11.066-3.553c2.889-2.37,4.332-5.782,4.332-10.239C182.612,20.741,181.187,17.472,178.335,15.172z"/>
<path fill="#38BDEE" d="M133.349,79.672h-7.271l-15.826-52.077c-0.358-0.998-0.679-2.316-0.963-3.957
	c-0.356,1.783-0.679,3.101-0.962,3.957L92.18,79.672h-7.058L64.589,1.609h10.479l13.581,51.223c0.142,0.713,0.356,1.817,0.642,3.313
	c0.356-1.567,0.642-2.709,0.855-3.422l16.147-51.115h7.058l15.612,51.543c0.144,0.571,0.354,1.604,0.644,3.102
	c0.283-1.497,0.498-2.567,0.642-3.209l14.543-51.436h10.372L133.349,79.672z"/>
<path fill="#FAA31D" d="M77.046,24.488c-1.961-4.919-4.705-9.197-8.234-12.832C65.283,8.02,61.041,5.17,56.087,3.101
	C51.131,1.034,45.624,0,39.566,0c-5.633,0-10.873,1.016-15.72,3.047c-4.849,2.032-9.036,4.849-12.564,8.448
	c-3.529,3.601-6.292,7.843-8.288,12.726C0.997,29.104,0,34.397,0,40.1c0,5.918,1.032,11.354,3.102,16.307
	c2.066,4.957,4.918,9.216,8.555,12.779c3.635,3.565,7.895,6.361,12.778,8.395c1.764,0.732,3.573,1.332,5.426,1.799
	c0.074-0.197,0.152-0.396,0.234-0.594c0.646-1.54,1.367-3.042,2.042-4.568c0.317-0.813,0.582-1.646,0.737-2.51
	c0.143-0.797,0.603-1.568,1.19-2.209c-1.698-0.371-3.358-0.9-4.979-1.596c-3.494-1.497-6.577-3.582-9.25-6.256
	s-4.795-5.844-6.363-9.518c-1.569-3.671-2.353-7.682-2.353-12.031c0-4.277,0.695-8.233,2.085-11.87
	c1.391-3.636,3.333-6.754,5.828-9.357c2.495-2.601,5.507-4.651,9.036-6.148c3.529-1.498,7.395-2.246,11.603-2.246
	c4.277,0,8.215,0.749,11.816,2.246c3.599,1.497,6.684,3.547,9.25,6.148c2.567,2.603,4.562,5.705,5.989,9.304
	c1.425,3.601,2.139,7.503,2.139,11.709c0,4.706-0.785,8.913-2.353,12.62c-1.569,3.707-3.673,6.879-6.31,9.518
	c-2.638,2.638-5.686,4.65-9.143,6.041c-2.034,0.816-4.135,1.391-6.303,1.728c1.133,2.486,2.049,5.054,3.04,7.597
	c0.302,0.775,0.604,1.557,0.887,2.34c2.375-0.513,4.683-1.246,6.921-2.198c4.847-2.067,9.071-4.919,12.671-8.556
	c3.599-3.637,6.451-7.896,8.555-12.778c2.102-4.882,3.154-10.176,3.154-15.88C79.987,34.683,79.006,29.407,77.046,24.488z"/>
<path fill="#FAA31D" d="M0.155,90.562c0-1.037,0.391-1.926,1.173-2.666c0.782-0.739,1.722-1.109,2.82-1.109
	c1.071,0,1.994,0.373,2.769,1.119c0.774,0.746,1.161,1.631,1.161,2.656c0,1.086-0.382,2.004-1.147,2.752
	c-0.765,0.75-1.704,1.125-2.817,1.125c-1.098,0-2.032-0.377-2.803-1.133C0.54,92.552,0.155,91.638,0.155,90.562z M7.034,90.606
	c0-0.793-0.286-1.461-0.857-2.002c-0.572-0.543-1.274-0.814-2.109-0.814c-0.793,0-1.472,0.275-2.039,0.828
	c-0.565,0.553-0.848,1.216-0.848,1.988c0,0.785,0.29,1.449,0.871,1.992c0.581,0.543,1.292,0.813,2.134,0.813
	c0.774,0,1.442-0.276,2.004-0.831C6.753,92.028,7.034,91.37,7.034,90.606z"/>
<path fill="#FAA31D" d="M9.856,87.013h1.556c0.775,0,1.405,0.192,1.892,0.577c0.487,0.386,0.73,0.878,0.73,1.479
	c0,0.482-0.158,0.906-0.472,1.275c-0.315,0.367-0.807,0.627-1.474,0.776l2.087,3.074H13.05l-1.993-2.955h-0.22v2.955H9.856V87.013z
	 M10.837,87.881v2.505c1.448,0.029,2.171-0.39,2.171-1.259c0-0.305-0.084-0.554-0.254-0.747c-0.169-0.193-0.395-0.324-0.677-0.395
	C11.796,87.915,11.383,87.881,10.837,87.881z"/>
<path fill="#FAA31D" d="M15.746,87.013h3.981v0.981h-3.012v1.792h3.012v0.971h-3.012v2.471h3.012v0.97h-3.981V87.013z"/>
<path fill="#FAA31D" d="M28.172,88.162l-0.728,0.717c-0.733-0.719-1.581-1.077-2.543-1.077c-0.842,0-1.543,0.271-2.104,0.812
	c-0.56,0.541-0.84,1.218-0.84,2.028c0,0.711,0.271,1.35,0.815,1.918c0.543,0.568,1.292,0.854,2.247,0.854
	c1.432,0,2.333-0.622,2.701-1.867h-1.939v-0.979h3.062c0,0.49-0.033,0.884-0.098,1.177c-0.066,0.293-0.203,0.614-0.41,0.969
	c-0.206,0.353-0.482,0.669-0.826,0.948c-0.344,0.279-0.713,0.479-1.105,0.6s-0.862,0.18-1.407,0.18c-1.241,0-2.23-0.389-2.969-1.168
	c-0.739-0.779-1.108-1.67-1.108-2.674c0-1.057,0.378-1.955,1.134-2.696c0.756-0.742,1.671-1.113,2.747-1.113
	c0.639,0,1.223,0.099,1.75,0.291C27.079,87.271,27.619,87.632,28.172,88.162z"/>
<path fill="#FAA31D" d="M30.182,90.562c0-1.037,0.391-1.926,1.173-2.666c0.782-0.739,1.722-1.109,2.82-1.109
	c1.071,0,1.995,0.373,2.769,1.119c0.775,0.746,1.162,1.631,1.162,2.656c0,1.086-0.383,2.004-1.148,2.752
	c-0.765,0.75-1.704,1.125-2.817,1.125c-1.098,0-2.032-0.377-2.802-1.133C30.567,92.552,30.182,91.638,30.182,90.562z M37.062,90.606
	c0-0.793-0.286-1.461-0.857-2.002c-0.572-0.543-1.274-0.814-2.109-0.814c-0.794,0-1.474,0.275-2.039,0.828
	c-0.566,0.553-0.849,1.216-0.849,1.988c0,0.785,0.291,1.449,0.871,1.992c0.581,0.543,1.292,0.813,2.134,0.813
	c0.775,0,1.443-0.276,2.005-0.831C36.78,92.027,37.062,91.37,37.062,90.606z"/>
<path fill="#FAA31D" d="M39.675,86.726l5.312,5.459v-5.172h0.981v7.518l-5.312-5.438v5.104h-0.981V86.726z"/>
<path fill="#38BDEE" d="M56.329,86.736l2.312,5.302l2.17-5.016h1.013l-3.183,7.398l-2.311-5.314l-2.313,5.314l-3.189-7.398h1.013
	l2.187,5.072L56.329,86.736z"/>
<path fill="#38BDEE" d="M63.13,87.013h3.981v0.981H64.1v1.792h3.011v0.971H64.1v2.471h3.011v0.97H63.13V87.013z"/>
<path fill="#38BDEE" d="M68.755,87.013h0.97v6.215h2.34v0.97h-3.31V87.013z"/>
<path fill="#38BDEE" d="M73.545,87.013h0.97v6.215h2.34v0.97h-3.31V87.013z"/>
<path fill="#38BDEE" d="M78.138,86.726l5.312,5.459v-5.172h0.981v7.518l-5.312-5.438v5.104h-0.981V86.726z"/>
<path fill="#38BDEE" d="M86.164,87.013h3.981v0.981h-3.011v1.792h3.011v0.971h-3.011v2.471h3.011v0.97h-3.981V87.013z"/>
<path fill="#38BDEE" d="M96.036,87.812l-0.795,0.639c-0.211-0.219-0.401-0.381-0.572-0.488c-0.17-0.105-0.417-0.16-0.739-0.16
	c-0.353,0-0.639,0.079-0.858,0.238c-0.22,0.16-0.329,0.365-0.329,0.616c0,0.218,0.096,0.409,0.288,0.575
	c0.192,0.168,0.518,0.351,0.98,0.549c0.46,0.197,0.82,0.383,1.078,0.554c0.257,0.171,0.468,0.36,0.633,0.565
	c0.165,0.207,0.288,0.425,0.368,0.654c0.081,0.229,0.121,0.471,0.121,0.728c0,0.597-0.216,1.106-0.65,1.526
	c-0.435,0.42-0.96,0.631-1.577,0.631c-0.602,0-1.132-0.164-1.593-0.493s-0.815-0.822-1.063-1.479l0.981-0.277
	c0.357,0.811,0.904,1.214,1.641,1.214c0.357,0,0.654-0.106,0.891-0.32c0.237-0.214,0.356-0.483,0.356-0.81
	c0-0.194-0.062-0.392-0.187-0.588c-0.125-0.197-0.279-0.358-0.462-0.486c-0.185-0.126-0.478-0.273-0.881-0.438
	c-0.402-0.166-0.712-0.318-0.928-0.455c-0.217-0.137-0.405-0.3-0.563-0.49c-0.159-0.188-0.275-0.379-0.349-0.565
	c-0.074-0.187-0.11-0.389-0.11-0.603c0-0.516,0.207-0.954,0.621-1.316c0.413-0.361,0.916-0.544,1.506-0.544
	c0.391,0,0.787,0.085,1.189,0.254C95.435,87.21,95.768,87.468,96.036,87.812z"/>
<path fill="#38BDEE" d="M102.155,87.812l-0.795,0.639c-0.211-0.219-0.399-0.381-0.569-0.488c-0.172-0.105-0.418-0.16-0.74-0.16
	c-0.353,0-0.639,0.079-0.856,0.238c-0.221,0.16-0.33,0.365-0.33,0.616c0,0.218,0.096,0.409,0.287,0.575
	c0.19,0.168,0.518,0.351,0.979,0.549c0.461,0.197,0.82,0.383,1.077,0.554c0.258,0.171,0.469,0.36,0.634,0.565
	c0.165,0.207,0.288,0.425,0.369,0.654c0.081,0.229,0.12,0.471,0.12,0.728c0,0.597-0.217,1.106-0.65,1.526
	c-0.435,0.42-0.959,0.631-1.576,0.631c-0.602,0-1.133-0.164-1.594-0.493c-0.46-0.329-0.815-0.822-1.063-1.479l0.981-0.277
	c0.357,0.811,0.905,1.214,1.643,1.214c0.355,0,0.652-0.106,0.891-0.32c0.236-0.214,0.355-0.483,0.355-0.81
	c0-0.194-0.063-0.392-0.188-0.588c-0.125-0.197-0.277-0.358-0.462-0.486c-0.185-0.126-0.479-0.273-0.881-0.438
	c-0.402-0.166-0.712-0.318-0.929-0.455s-0.404-0.3-0.563-0.49c-0.157-0.188-0.272-0.379-0.347-0.565s-0.11-0.389-0.11-0.603
	c0-0.516,0.206-0.954,0.62-1.316c0.413-0.361,0.916-0.544,1.506-0.544c0.393,0,0.788,0.085,1.189,0.254
	C101.556,87.21,101.89,87.468,102.155,87.812z"/>
<path fill="#A4CD39" d="M107.653,87.013h1.445c0.813,0,1.473,0.191,1.973,0.574c0.5,0.385,0.75,0.883,0.75,1.495
	c0,0.616-0.264,1.134-0.793,1.551c-0.528,0.417-1.33,0.62-2.404,0.608v2.955h-0.971V87.013z M108.624,87.87v2.516
	c0.736-0.009,1.283-0.113,1.638-0.313c0.356-0.201,0.533-0.523,0.533-0.968c0-0.334-0.134-0.623-0.401-0.867
	C110.123,87.992,109.534,87.87,108.624,87.87z"/>
<path fill="#A4CD39" d="M115.3,86.736l3.393,7.46h-1.027l-0.834-1.838h-3.049l-0.823,1.838h-1.022L115.3,86.736z M115.298,88.978
	l-1.148,2.563h2.312L115.298,88.978z"/>
<path fill="#A4CD39" d="M120.094,87.013h1.556c0.774,0,1.406,0.192,1.894,0.577c0.485,0.386,0.729,0.878,0.729,1.479
	c0,0.482-0.158,0.906-0.474,1.275c-0.313,0.367-0.806,0.627-1.473,0.776l2.086,3.074h-1.125l-1.993-2.955h-0.221v2.955h-0.979
	V87.013z M121.073,87.881v2.505c1.447,0.029,2.172-0.39,2.172-1.259c0-0.305-0.084-0.554-0.253-0.747
	c-0.171-0.193-0.396-0.324-0.677-0.395C122.033,87.915,121.619,87.881,121.073,87.881z"/>
<path fill="#A4CD39" d="M125.622,87.013h4.393v0.981h-1.714v6.202h-0.97v-6.202h-1.709V87.013z"/>
<path fill="#A4CD39" d="M131.41,86.726l5.312,5.459v-5.172h0.98v7.518l-5.313-5.438v5.104h-0.979V86.726z"/>
<path fill="#A4CD39" d="M139.438,87.013h3.98v0.981h-3.012v1.792h3.012v0.971h-3.012v2.471h3.012v0.97h-3.98V87.013z"/>
<path fill="#A4CD39" d="M145.073,87.013h1.557c0.773,0,1.405,0.192,1.893,0.577c0.486,0.386,0.729,0.878,0.729,1.479
	c0,0.482-0.157,0.906-0.474,1.275c-0.313,0.367-0.805,0.627-1.473,0.776l2.088,3.074h-1.127l-1.992-2.955h-0.221v2.955h-0.98V87.013
	L145.073,87.013z M146.056,87.881v2.505c1.447,0.029,2.17-0.39,2.17-1.259c0-0.305-0.084-0.554-0.252-0.747
	c-0.171-0.193-0.396-0.324-0.678-0.395S146.601,87.881,146.056,87.881z"/>
<path fill="#A4CD39" d="M155.431,87.812l-0.797,0.639c-0.21-0.219-0.4-0.381-0.57-0.488c-0.172-0.105-0.418-0.16-0.74-0.16
	c-0.353,0-0.639,0.079-0.856,0.238c-0.221,0.16-0.329,0.365-0.329,0.616c0,0.218,0.096,0.409,0.287,0.575
	c0.189,0.168,0.518,0.351,0.979,0.549c0.461,0.197,0.82,0.383,1.078,0.554s0.469,0.36,0.635,0.565
	c0.164,0.207,0.287,0.425,0.367,0.654c0.082,0.229,0.121,0.471,0.121,0.728c0,0.597-0.218,1.106-0.65,1.526
	c-0.436,0.42-0.96,0.631-1.576,0.631c-0.602,0-1.133-0.164-1.594-0.493s-0.814-0.822-1.063-1.479l0.98-0.277
	c0.357,0.811,0.904,1.214,1.642,1.214c0.357,0,0.654-0.106,0.892-0.32c0.236-0.214,0.354-0.483,0.354-0.81
	c0-0.194-0.062-0.392-0.187-0.588c-0.125-0.197-0.278-0.358-0.463-0.486c-0.185-0.126-0.479-0.273-0.879-0.438
	c-0.403-0.166-0.713-0.318-0.93-0.455c-0.218-0.137-0.404-0.3-0.563-0.49c-0.158-0.188-0.274-0.379-0.35-0.565
	c-0.072-0.188-0.109-0.389-0.109-0.603c0-0.516,0.207-0.954,0.619-1.316c0.414-0.361,0.918-0.544,1.506-0.544
	c0.393,0,0.789,0.085,1.189,0.254C154.828,87.21,155.162,87.468,155.431,87.812z"/>
<path fill="#FAA31D" d="M23.843,42.399c0,0,5.83,5.649,9.664,9.875c3.267,3.599,3.612,4.515,3.01,6.378
	c-0.93,2.878-6.378,19.649-6.378,19.649s5.054-7.478,6.336-9.109c1.585-2.018,2.579-3.215,3.744-3.072
	c1.106-0.007,1.657,0.822,2.74,2.589c1,1.631,5.206,9.593,5.206,9.593s-3.564-17.766-3.601-19.906
	c-0.056-3.393,2.559-6.4,4.471-9.125c1.451-2.064,6.35-9.232,6.35-9.232s-7.137,6.666-9.973,9.093
	c-1.348,1.154-2.534,1.709-3.582,1.892c-2.617,0.451-4.264-0.51-7.295-2.103C31.504,47.328,23.843,42.399,23.843,42.399z"/>
<circle fill="#FAA31D" cx="40.349" cy="45.276" r="3.516"/>
<path fill="#A5CD39" d="M20.453,48.588c3.147,1.255,6.145,1.369,7.918,1.265c-0.947-1.773-2.614-3.247-4.665-3.607
	c-2.203-0.388-4.594,0.137-6.485-1.092c0.606,2.041,1.438,4.804,3.68,5.947c1.995,1.017,4.931,1.609,7.759-0.074
	C26.545,50.995,23.069,50.759,20.453,48.588z"/>
<path fill="#A5CD39" d="M49.893,57.638c1.286,0.442,3.504,0.115,3.504,0.115s-0.418-2.297-1.688-2.893
	c-1.048-0.491-2.808-0.569-3.908-0.393C47.808,55.654,48.244,57.067,49.893,57.638z"/>
<path fill="#A5CD39" d="M55.727,43.964c3.1,2.324,4.738-0.291,7.265-0.708c-1.051-0.717-1.841-1.423-3.371-1.672
	C57.533,41.244,56.43,42.536,55.727,43.964z"/>
<path fill="#A5CD39" d="M33.429,55.249c-2.065,1.207-2.363,2.428-1.623,4.585c0.474-0.756,1.555-0.776,2.028-1.821
	C34.13,57.354,34.162,56.045,33.429,55.249z"/>
<path fill="#A5CD39" d="M32.52,53.351c-3.404-0.858-5.603,0.304-7.047,3.819c1.448-0.379,2.714,0.22,4.175-0.514
	C31.299,55.831,31.465,54.173,32.52,53.351z"/>
<path fill="#A5CD39" d="M23.137,43.64c-1.553,0.007-2.218,0.86-3.834,0.15c-0.976-0.428-1.839-1.099-2.731-2.347
	c0.827-0.514,3.077-1.414,4.492-0.354C22.232,41.964,22.656,42.624,23.137,43.64z"/>
<path fill="#A5CD39" d="M40.951,18.69c0.042-1.683-0.676-2.694-2.128-3.75c-1.776,2.994-1.998,3.931,0.361,7.223
	C39.184,22.163,40.908,20.346,40.951,18.69z"/>
<path fill="#A5CD39" d="M23.622,30.464c-0.18-1.593,0.194-3.955-3.832-4.203C20.635,27.264,19.772,29.79,23.622,30.464z"/>
<path fill="#A5CD39" d="M56.004,31.374c-0.474-1.825-0.3-4.884,3.905-5.256C60.037,30.442,57.241,30.199,56.004,31.374z"/>
<path fill="#A5CD39" d="M48.828,22.017c-0.285-1.271-0.484-3.658,2.891-3.893C50.98,19.052,52.131,21.658,48.828,22.017z"/>
<path fill="#A5CD39" d="M54.46,31.265c-2.289,2.889-7.549,2.08-9.383,7.045c-0.485,1.313-0.324,3.714-0.007,4.805
	c1.14-4.205,4.242-6.18,5.82-7.299c-1.449,1.8-4.75,5.201-5.262,9.497c1.65-1.958,4.741-2.655,7.164-5.712
	C54.694,37.2,54.707,33.473,54.46,31.265z"/>
<path fill="#A5CD39" d="M30.211,38.241c0,0,3.919,1.649,4.68,5.031c0.37-1.759,0.863-3.461-0.162-5.282
	c-1.009-1.792-2.876-2.643-4.715-3.336c-1.501-0.565-2.97-1.257-4.204-2.18c-0.187,4.829,0.635,7.425,1.649,8.659
	c2.757,3.356,4.979,2.859,7.146,4.907C34.268,42.069,30.211,38.241,30.211,38.241z"/>
<path fill="#A5CD39" d="M55.297,20.692c-2.192,1.67-5.487,2.277-7.44,4.12c-1.833,1.73-1.986,4.352-0.984,6.52
	c0.26-1.823,2.125-4.506,5.428-6.483c-2.398,2.767-3.955,4.565-4.774,7.564c0.29-0.056,2.84-0.577,4.295-1.676
	C55.635,27.853,55.623,23.22,55.297,20.692z"/>
<path fill="#A5CD39" d="M55.807,46.607c-2.246,0.189-5.166,2.236-5.43,4.656c-0.048,0.039-0.093,0.075-0.137,0.111
	c2.633,0.398,5.397-1.182,6.195-1.796c-1.524,2.444-5.12,3.325-6.979,2.692c2.38,2.41,6.733,1.834,8.463-0.965
	c1.06-1.718,1.667-3.733,3.877-4.272C60.049,46.682,58.283,46.398,55.807,46.607z"/>
<path fill="#A5CD39" d="M31.304,29.099c-0.985-1.464-1.834-2.508-3.526-4.364c2.13,1.271,4.715,3.631,6.043,6.775
	c0.011-0.062,0.021-0.123,0.033-0.188c0.389-2.105-0.229-3.425-1.055-4.675c-1.78-2.698-7.165-3.854-7.409-6.84
	c0,0-1.674,3.386-0.555,7.783c0.726,2.854,4.011,4.489,6.033,5.371c0.999,0.437,2.559,0.57,3.134,1.467
	c-0.015-0.056-0.031-0.109-0.045-0.162C32.818,32.019,32.064,30.228,31.304,29.099z"/>
<path fill="#A5CD39" d="M19.783,34.603c1.971,2.471,3.403,3.501,4.793,4.577c-0.081-1.401,0.618-3.509-0.621-5.359
	c-0.655-0.977-2.036-1.428-3.092-1.874c-0.982-0.416-2.017-1.107-3.131-1.905c-0.764,3.367-0.094,6.562,1.29,8.02
	c1.855,1.955,3.779,2.063,5.169,2.077C22.511,39.129,20.871,37.207,19.783,34.603z"/>
<path fill="#A5CD39" d="M62.165,30.916c-4.379,1.312-6.43,3.228-5.804,8.001c0.934-1.346,2.674-2.696,4.115-4.7
	c-1.128,2.501-2.169,4.188-3.71,5.965c1.516-0.186,4.252-0.889,5.299-3.15C62.812,35.415,62.604,32.867,62.165,30.916z"/>
<path fill="#A5CD39" d="M35.804,19.472c-1.213-1.79-5.739-2.488-5.739-2.488s-0.605,3.92,1.577,6.052
	c1.328,1.296,3.025,1.407,4.041,3.252c0.01-0.016,0.02-0.031,0.03-0.047c-0.441-4.01-2.51-6.043-3.281-6.825
	c1.724,0.868,3.572,3.068,3.777,5.884c0.307-0.774,0.437-1.6,0.542-2.322C36.927,21.78,36.438,20.406,35.804,19.472z"/>
<path fill="#A5CD39" d="M40.967,22.289c-3.598,4.289-5.247,6.95-5.338,10.884c-0.108,4.721,4.339,6.672,4.677,6.814
	c-0.835-1.972-2.475-7.001-0.117-12.632c-1.108,6.459,0.418,9.823,1.621,11.898c0.785-0.498,1.723-1.271,2.395-2.399
	C47.604,31.155,42.223,26.228,40.967,22.289z"/>
<path fill="#A5CD39" d="M45.516,15.546c0.054-0.15-2.613,2.151-2.864,5.27c-0.158,1.949,0.807,2.915,1.854,4.337
	c-0.318-2.06-0.105-4.511,0.38-5.974c-0.067,1.354,0.198,4.066,0.375,5.46c0.811-0.956,2.063-1.852,2.173-3.331
	C47.597,19.155,46.244,17.278,45.516,15.546z"/>
</svg>
