<?xml version="1.0" encoding="utf-8"?>
<!-- Generator: Adobe Illustrator 15.1.0, SVG Export Plug-In  -->
<!DOCTYPE svg PUBLIC "-//W3C//DTD SVG 1.1//EN" "http://www.w3.org/Graphics/SVG/1.1/DTD/svg11.dtd" [
	<!ENTITY ns_flows "http://ns.adobe.com/Flows/1.0/">
]>
<svg version="1.1"
	 xmlns="http://www.w3.org/2000/svg" xmlns:xlink="http://www.w3.org/1999/xlink" xmlns:a="http://ns.adobe.com/AdobeSVGViewerExtensions/3.0/"
	 x="0px" y="0px" width="1971px" height="1035px" viewBox="-123.689 -26.439 1971 1035"
	 enable-background="new -123.689 -26.439 1971 1035" xml:space="preserve">
<defs>
</defs>
<path fill="#A4CD39" d="M1793.695,323.135c-12,26.346-28,49.5-48,69.5s-43.344,35.846-70,47.5c-26.672,11.672-54.672,17.5-84,17.5
	h-138v287h-100V14.636h219c36.656,0,69.828,5.845,99.5,17.5c29.656,11.672,54.828,27.5,75.5,47.5c20.656,20,36.5,43.672,47.5,71
	c11,27.345,16.5,57,16.5,89C1811.695,268.98,1805.695,296.807,1793.695,323.135z M1667.695,141.886
	c-26.672-21.5-63.344-32.25-110-32.25h-104v252.999h110c42,0,76.5-11.078,103.5-33.232c27-22.156,40.5-54.063,40.5-95.75
	C1707.695,193.964,1694.352,163.386,1667.695,141.886z"/>
<path fill="#FAA31B" d="M5.357,852.941c0-8.977,3.386-16.67,10.156-23.078s14.909-9.611,24.414-9.611
	c9.277,0,17.269,3.229,23.975,9.686c6.705,6.457,10.059,14.125,10.059,23.004c0,9.402-3.313,17.348-9.937,23.836
	c-6.625,6.49-14.754,9.734-24.39,9.734c-9.505,0-17.595-3.27-24.268-9.807C8.694,870.166,5.357,862.246,5.357,852.941z
	 M64.928,853.332c0-6.861-2.474-12.641-7.422-17.34s-11.035-7.049-18.262-7.049c-6.868,0-12.753,2.391-17.651,7.17
	c-4.899,4.781-7.349,10.521-7.349,17.219c0,6.797,2.515,12.545,7.544,17.244s11.189,7.049,18.481,7.049
	c6.706,0,12.491-2.398,17.358-7.195C62.494,865.633,64.928,859.934,64.928,853.332z"/>
<path fill="#FAA31B" d="M116.688,844.129v8.301c1.888-3.32,3.735-5.721,5.542-7.203c1.807-1.48,4.158-2.221,7.056-2.221
	c0.813,0,1.985,0.195,3.516,0.586l-2.588,8.496c-1.628-0.326-2.702-0.488-3.223-0.488c-2.865,0-5.266,1-7.202,3.002
	c-1.938,2.002-2.905,4.502-2.905,7.496v22.314h-8.496v-40.283H116.688z"/>
<path fill="#FAA31B" d="M203.75,865.906h-34.375c0.748,4.135,2.449,7.152,5.103,9.057c2.652,1.904,5.542,2.857,8.667,2.857
	c4.817,0,8.854-2.002,12.109-6.006l6.201,4.688c-4.655,6.021-10.889,9.033-18.701,9.033c-5.99,0-11.003-2.051-15.039-6.152
	c-4.037-4.102-6.055-9.195-6.055-15.283c0-5.697,2.042-10.637,6.128-14.82c4.085-4.182,9.073-6.273,14.966-6.273
	c5.794,0,10.758,2.123,14.893,6.371C201.78,853.625,203.814,859.135,203.75,865.906z M170.254,859.119h24.609
	c-2.734-5.533-6.771-8.301-12.109-8.301C176.927,850.818,172.76,853.586,170.254,859.119z"/>
<path fill="#FAA31B" d="M270.061,844.129h8.301v38.672c0,5.695-1.962,10.537-5.884,14.525c-3.923,3.988-8.667,5.982-14.233,5.982
	c-4.232,0-8.122-1.148-11.67-3.443c-3.549-2.295-6.152-5.785-7.813-10.473h8.789c2.637,4.361,6.299,6.543,10.986,6.543
	c3.189,0,5.908-1.148,8.154-3.443s3.369-5.053,3.369-8.275V876.6c-4.102,5.957-9.277,8.936-15.527,8.936
	c-5.144,0-9.628-2.125-13.452-6.373c-3.825-4.248-5.737-9.268-5.737-15.063s1.863-10.758,5.591-14.893
	c3.727-4.135,8.162-6.201,13.306-6.201c6.641,0,11.914,3.207,15.82,9.619V844.129z M271.232,864.197
	c0-3.775-1.311-6.934-3.931-9.473c-2.621-2.539-5.868-3.809-9.741-3.809c-3.549,0-6.674,1.318-9.375,3.955
	c-2.702,2.637-4.053,5.68-4.053,9.131c0,3.744,1.334,6.967,4.004,9.668c2.669,2.701,5.843,4.053,9.521,4.053
	c3.743,0,6.941-1.318,9.595-3.955C269.905,871.131,271.232,867.941,271.232,864.197z"/>
<path fill="#FAA31B" d="M312.445,864.1c0-5.502,2.173-10.393,6.519-14.674c4.346-4.279,9.334-6.42,14.966-6.42
	c5.794,0,10.855,2.107,15.186,6.322c4.329,4.217,6.494,9.141,6.494,14.771c0,5.664-2.124,10.652-6.372,14.965
	c-4.248,4.314-9.155,6.471-14.722,6.471c-5.957,0-11.125-2.133-15.503-6.396C314.634,874.875,312.445,869.861,312.445,864.1z
	 M347.406,864.123c0-3.424-1.303-6.4-3.906-8.928c-2.604-2.527-5.697-3.791-9.277-3.791c-3.679,0-6.845,1.279-9.497,3.84
	c-2.653,2.561-3.979,5.617-3.979,9.172c0,3.393,1.343,6.361,4.028,8.904c2.686,2.545,5.835,3.816,9.448,3.816
	c3.516,0,6.592-1.305,9.229-3.914S347.406,867.582,347.406,864.123z"/>
<path fill="#FAA31B" d="M386.129,884.412v-40.283h8.301v6.689c2.441-2.701,4.654-4.68,6.641-5.934
	c1.985-1.252,4.199-1.879,6.641-1.879c3.646,0,6.763,1.205,9.351,3.613s3.882,5.307,3.882,8.691v29.102h-8.496v-26.611
	c0-2.182-0.708-3.988-2.124-5.42s-3.215-2.148-5.396-2.148c-2.832,0-5.273,1.195-7.324,3.588s-3.076,5.283-3.076,8.668v21.924
	H386.129z"/>
<path fill="#35BDEE" d="M631.764,819.813l20.02,45.918l18.791-43.428h8.771l-27.563,64.063l-20.012-46.023l-20.027,46.023
	l-27.613-64.063h8.773l18.93,43.918L631.764,819.813z"/>
<path fill="#35BDEE" d="M742.727,865.906h-34.375c0.748,4.135,2.449,7.152,5.104,9.057c2.652,1.904,5.541,2.857,8.666,2.857
	c4.818,0,8.854-2.002,12.109-6.006l6.201,4.688c-4.654,6.021-10.889,9.033-18.701,9.033c-5.99,0-11.002-2.051-15.039-6.152
	s-6.055-9.195-6.055-15.283c0-5.697,2.043-10.637,6.129-14.82c4.084-4.182,9.072-6.273,14.965-6.273
	c5.795,0,10.758,2.123,14.893,6.371S742.791,859.135,742.727,865.906z M709.23,859.119h24.609
	c-2.734-5.533-6.771-8.301-12.109-8.301C715.904,850.818,711.736,853.586,709.23,859.119z"/>
<path fill="#35BDEE" d="M776.664,821.033h8.496v63.379h-8.496V821.033z"/>
<path fill="#35BDEE" d="M821.588,821.033h8.496v63.379h-8.496V821.033z"/>
<path fill="#35BDEE" d="M863.777,884.412v-40.283h8.301v6.689c2.441-2.701,4.654-4.68,6.641-5.934
	c1.986-1.252,4.199-1.879,6.641-1.879c3.646,0,6.764,1.205,9.352,3.613s3.881,5.307,3.881,8.691v29.102h-8.496v-26.611
	c0-2.182-0.707-3.988-2.123-5.42s-3.215-2.148-5.396-2.148c-2.832,0-5.273,1.195-7.324,3.588s-3.076,5.283-3.076,8.668v21.924
	H863.777z"/>
<path fill="#35BDEE" d="M972.373,865.906h-34.375c0.748,4.135,2.449,7.152,5.104,9.057c2.652,1.904,5.541,2.857,8.666,2.857
	c4.818,0,8.854-2.002,12.109-6.006l6.201,4.688c-4.654,6.021-10.889,9.033-18.701,9.033c-5.99,0-11.002-2.051-15.039-6.152
	s-6.055-9.195-6.055-15.283c0-5.697,2.043-10.637,6.129-14.82c4.084-4.182,9.072-6.273,14.965-6.273
	c5.795,0,10.758,2.123,14.893,6.371S972.438,859.135,972.373,865.906z M938.877,859.119h24.609
	c-2.734-5.533-6.771-8.301-12.109-8.301C945.551,850.818,941.383,853.586,938.877,859.119z"/>
<path fill="#35BDEE" d="M1029.453,848.914l-5.662,4.98c-1.465-1.041-2.734-1.832-3.809-2.369s-2.344-0.805-3.809-0.805
	c-3.451,0-5.176,1.27-5.176,3.809c0,1.822,2.189,3.594,6.568,5.311c4.377,1.717,7.527,3.6,9.447,5.648
	c1.918,2.049,2.879,4.52,2.879,7.412c0,3.383-1.383,6.334-4.148,8.854c-2.768,2.521-6.021,3.781-9.766,3.781
	c-5.697,0-10.367-2.637-14.014-7.91l6.689-3.223c2.344,2.279,4.785,3.418,7.324,3.418c1.758,0,3.297-0.48,4.615-1.441
	c1.318-0.959,1.977-2.074,1.977-3.344c0-2.246-2.311-4.268-6.934-6.061c-4.623-1.795-7.82-3.611-9.594-5.449
	c-1.775-1.838-2.662-4.107-2.662-6.809c0-3.35,1.262-6.141,3.785-8.369c2.521-2.229,5.688-3.342,9.496-3.342
	S1024.734,844.975,1029.453,848.914z"/>
<path fill="#35BDEE" d="M1085.754,848.914l-5.664,4.98c-1.465-1.041-2.734-1.832-3.809-2.369s-2.344-0.805-3.809-0.805
	c-3.451,0-5.176,1.27-5.176,3.809c0,1.822,2.189,3.594,6.568,5.311c4.377,1.717,7.527,3.6,9.447,5.648s2.881,4.52,2.881,7.412
	c0,3.383-1.383,6.334-4.15,8.854c-2.768,2.521-6.021,3.781-9.766,3.781c-5.697,0-10.367-2.637-14.014-7.91l6.689-3.223
	c2.344,2.279,4.785,3.418,7.324,3.418c1.758,0,3.297-0.48,4.615-1.441c1.318-0.959,1.977-2.074,1.977-3.344
	c0-2.246-2.311-4.268-6.934-6.061c-4.623-1.795-7.82-3.611-9.594-5.449c-1.775-1.838-2.662-4.107-2.662-6.809
	c0-3.35,1.262-6.141,3.785-8.369c2.521-2.229,5.688-3.342,9.496-3.342S1081.033,844.975,1085.754,848.914z"/>
<path fill="#A5CD39" d="M1256.17,822.205h12.5c7.063,0,12.76,1.66,17.09,4.98c4.328,3.32,6.494,7.633,6.494,12.939
	c0,5.338-2.287,9.814-6.861,13.428c-4.572,3.613-11.516,5.371-20.824,5.273v25.586h-8.398V822.205z M1264.568,829.627v21.777
	c6.379-0.064,11.107-0.969,14.184-2.711c3.076-1.74,4.615-4.531,4.615-8.373c0-2.896-1.164-5.404-3.492-7.52
	C1277.549,830.686,1272.445,829.627,1264.568,829.627z"/>
<path fill="#A5CD39" d="M1354.268,844.129h8.496v40.283h-8.496v-8.008c-4.135,6.088-9.262,9.131-15.381,9.131
	c-5.307,0-9.84-2.084-13.6-6.25s-5.639-9.229-5.639-15.186c0-5.631,1.895-10.555,5.688-14.771c3.793-4.215,8.244-6.322,13.355-6.322
	c3.156,0,6.152,0.863,8.984,2.588s5.029,3.971,6.592,6.738V844.129z M1355.439,864.393c0-3.678-1.322-6.828-3.963-9.449
	c-2.641-2.619-5.805-3.93-9.49-3.93c-3.586,0-6.719,1.303-9.393,3.906s-4.01,5.664-4.01,9.18c0,3.809,1.303,7.047,3.912,9.717
	s5.773,4.004,9.49,4.004c3.686,0,6.85-1.326,9.49-3.98C1354.117,871.188,1355.439,868.039,1355.439,864.393z"/>
<path fill="#A5CD39" d="M1407.98,844.129v8.301c1.887-3.32,3.734-5.721,5.541-7.203c1.807-1.48,4.158-2.221,7.057-2.221
	c0.813,0,1.984,0.195,3.516,0.586l-2.588,8.496c-1.629-0.326-2.703-0.488-3.223-0.488c-2.865,0-5.266,1-7.203,3.002
	s-2.904,4.502-2.904,7.496v22.314h-8.496v-40.283H1407.98z"/>
<path fill="#A5CD39" d="M1459.545,832.41h8.496v11.719h8.398v7.764h-8.398v32.52h-8.496v-32.52h-6.689v-7.861h6.689V832.41z"/>
<path fill="#A5CD39" d="M1505.348,884.412v-40.283h8.301v6.689c2.441-2.701,4.654-4.68,6.641-5.934
	c1.984-1.252,4.199-1.879,6.641-1.879c3.645,0,6.762,1.205,9.35,3.613s3.883,5.307,3.883,8.691v29.102h-8.496v-26.611
	c0-2.182-0.709-3.988-2.125-5.42s-3.215-2.148-5.395-2.148c-2.832,0-5.273,1.195-7.324,3.588s-3.076,5.283-3.076,8.668v21.924
	H1505.348z"/>
<path fill="#A5CD39" d="M1613.943,865.906h-34.375c0.748,4.135,2.449,7.152,5.102,9.057s5.543,2.857,8.668,2.857
	c4.816,0,8.854-2.002,12.109-6.006l6.201,4.688c-4.656,6.021-10.889,9.033-18.701,9.033c-5.99,0-11.004-2.051-15.039-6.152
	c-4.037-4.102-6.055-9.195-6.055-15.283c0-5.697,2.041-10.637,6.127-14.82c4.086-4.182,9.074-6.273,14.967-6.273
	c5.793,0,10.758,2.123,14.893,6.371C1611.973,853.625,1614.008,859.135,1613.943,865.906z M1580.447,859.119h24.609
	c-2.734-5.533-6.771-8.301-12.109-8.301C1587.119,850.818,1582.953,853.586,1580.447,859.119z"/>
<path fill="#A5CD39" d="M1656.182,844.129v8.301c1.887-3.32,3.734-5.721,5.541-7.203c1.807-1.48,4.158-2.221,7.057-2.221
	c0.813,0,1.984,0.195,3.516,0.586l-2.588,8.496c-1.629-0.326-2.703-0.488-3.223-0.488c-2.865,0-5.266,1-7.203,3.002
	s-2.904,4.502-2.904,7.496v22.314h-8.496v-40.283H1656.182z"/>
<path fill="#A5CD39" d="M1727.326,848.914l-5.664,4.98c-1.465-1.041-2.734-1.832-3.809-2.369s-2.344-0.805-3.809-0.805
	c-3.451,0-5.176,1.27-5.176,3.809c0,1.822,2.188,3.594,6.566,5.311s7.527,3.6,9.449,5.648c1.92,2.049,2.881,4.52,2.881,7.412
	c0,3.383-1.385,6.334-4.15,8.854c-2.768,2.521-6.023,3.781-9.766,3.781c-5.697,0-10.369-2.637-14.014-7.91l6.689-3.223
	c2.344,2.279,4.785,3.418,7.324,3.418c1.758,0,3.295-0.48,4.613-1.441c1.318-0.959,1.979-2.074,1.979-3.344
	c0-2.246-2.313-4.268-6.934-6.061c-4.623-1.795-7.822-3.611-9.596-5.449s-2.66-4.107-2.66-6.809c0-3.35,1.26-6.141,3.783-8.369
	s5.689-3.342,9.498-3.342S1722.605,844.975,1727.326,848.914z"/>
<path fill="#38BDEE" d="M1247.01,745.053h-68l-148-486.999c-3.346-9.328-6.344-21.655-9-37c-3.344,16.672-6.344,29-9,37
	L862.011,745.053h-66l-192-729.999h98l127,478.999c1.328,6.672,3.328,17,6,31c3.328-14.654,6-25.328,8-32L994.01,15.054h66
	l146,481.999c1.328,5.346,3.328,15,6,29c2.654-14,4.654-24,6-30l136-480.999h97L1247.01,745.053z"/>
<path fill="#FAA31D" d="M720.5,229c-18.344-46-44-86-77-120s-72.672-60.656-119-80C478.156,9.672,426.656,0,370,0
	c-52.672,0-101.672,9.5-147,28.5c-45.344,19-84.5,45.344-117.5,79c-33,33.672-58.844,73.344-77.5,119C9.328,272.172,0,321.672,0,375
	c0,55.344,9.656,106.172,29,152.5c19.328,46.344,46,86.172,80,119.5c34,33.344,73.828,59.5,119.5,78.5
	c16.494,6.863,33.413,12.457,50.74,16.828c0.693-1.863,1.42-3.717,2.192-5.555c6.045-14.4,12.785-28.455,19.095-42.723
	c2.968-7.615,5.448-15.389,6.896-23.471c1.334-7.447,5.642-14.678,11.137-20.662c-15.88-3.469-31.405-8.424-46.56-14.92
	c-32.672-14-61.5-33.5-86.5-58.5s-44.844-54.656-59.5-89c-14.672-34.328-22-71.828-22-112.5c0-40,6.5-77,19.5-110.999
	c13-34,31.156-63.156,54.5-87.5c23.328-24.328,51.5-43.5,84.5-57.5s69.156-21,108.5-21c40,0,76.828,7,110.5,21
	c33.656,14,62.5,33.172,86.5,57.5c24,24.344,42.656,53.344,56,87c13.328,33.671,20,70.171,20,109.499c0,44-7.344,83.344-22,118
	c-14.672,34.672-34.344,64.344-59,89c-24.672,24.672-53.172,43.5-85.5,56.5c-19.015,7.643-38.666,13.008-58.942,16.15
	c10.589,23.248,19.16,47.244,28.423,71.031c2.825,7.256,5.646,14.553,8.298,21.895c22.211-4.801,43.787-11.652,64.722-20.576
	c45.328-19.328,84.828-46,118.5-80c33.656-34,60.328-73.828,80-119.5c19.656-45.656,29.5-95.156,29.5-148.5
	C748,324.344,738.828,275,720.5,229z"/>
<path fill="#FAA31D" d="M222.97,396.498c0,0,54.517,52.828,90.375,92.35c30.544,33.654,33.775,42.219,28.143,59.635
	c-8.697,26.912-59.646,183.754-59.646,183.754s47.261-69.918,59.258-85.174c14.827-18.867,24.122-30.078,35.01-28.738
	c10.341-0.064,15.492,7.689,25.624,24.203c9.357,15.258,48.686,89.709,48.686,89.709s-33.336-166.131-33.666-186.16
	c-0.525-31.719,23.926-59.85,41.81-85.322c13.565-19.32,59.379-86.344,59.379-86.344s-66.748,62.338-93.26,85.041
	c-12.604,10.793-23.702,15.979-33.494,17.672c-24.478,4.234-39.875-4.771-68.223-19.654
	C294.616,442.59,222.97,396.498,222.97,396.498z"/>
<path fill="#FAA31D" d="M410.124,425.744c-1.297,18.109-17.023,31.744-35.139,30.455c-18.105-1.293-31.745-17.025-30.451-35.141
	c1.29-18.105,17.023-31.74,35.129-30.451C397.779,391.904,411.412,407.631,410.124,425.744z"/>
<path fill="#A5CD39" d="M191.266,454.375c29.43,11.732,57.467,12.799,74.048,11.82c-8.854-16.574-24.448-30.355-43.624-33.727
	c-20.601-3.625-42.963,1.277-60.638-10.219c5.667,19.08,13.439,44.918,34.409,55.613c18.653,9.518,46.107,15.057,72.56-0.693
	C248.244,476.887,215.736,474.668,191.266,454.375z"/>
<path fill="#A5CD39" d="M466.58,538.992c12.027,4.143,32.767,1.086,32.767,1.086s-3.916-21.486-15.784-27.053
	c-9.799-4.59-26.255-5.32-36.546-3.662C447.08,520.457,451.154,533.68,466.58,538.992z"/>
<path fill="#A5CD39" d="M521.132,411.135c28.981,21.725,44.304-2.723,67.936-6.619c-9.825-6.703-17.21-13.311-31.517-15.639
	C538.02,385.697,527.714,397.773,521.132,411.135z"/>
<path fill="#A5CD39" d="M312.611,516.66c-19.312,11.291-22.098,22.699-15.176,42.879c4.432-7.066,14.545-7.27,18.967-17.041
	C319.174,536.359,319.472,524.104,312.611,516.66z"/>
<path fill="#A5CD39" d="M304.113,498.912c-31.836-8.027-52.396,2.83-65.906,35.729c13.544-3.553,25.377,2.039,39.042-4.809
	C292.693,522.105,294.253,506.596,304.113,498.912z"/>
<path fill="#A5CD39" d="M216.373,408.104c-14.521,0.059-20.735,8.045-35.859,1.4c-9.127-4-17.198-10.273-25.542-21.953
	c7.733-4.793,28.773-13.207,42.01-3.307C207.913,392.426,211.872,398.605,216.373,408.104z"/>
<path fill="#A5CD39" d="M382.951,174.78c0.395-15.731-6.313-25.191-19.9-35.065c-16.606,27.994-18.687,36.757,3.38,67.537
	C366.431,207.251,382.555,190.271,382.951,174.78z"/>
<path fill="#A5CD39" d="M220.905,284.879c-1.687-14.891,1.814-36.983-35.833-39.301
	C192.974,254.961,184.902,278.582,220.905,284.879z"/>
<path fill="#A5CD39" d="M523.722,293.398c-4.43-17.064-2.801-45.663,36.516-49.158C561.437,284.684,535.294,282.408,523.722,293.398
	z"/>
<path fill="#A5CD39" d="M456.615,205.894c-2.661-11.884-4.526-34.209,27.034-36.397
	C476.736,178.168,487.503,202.541,456.615,205.894z"/>
<path fill="#A5CD39" d="M509.28,292.371c-21.404,27.018-70.599,19.443-87.747,65.885c-4.536,12.283-3.024,34.732-0.068,44.938
	c10.661-39.322,39.672-57.793,54.426-68.25c-13.548,16.828-44.423,48.625-49.204,88.811c15.431-18.316,44.344-24.828,66.995-53.422
	C511.477,347.875,511.597,313.027,509.28,292.371z"/>
<path fill="#A5CD39" d="M282.522,357.609c0,0,36.654,15.422,43.765,47.049c3.453-16.445,8.068-32.359-1.52-49.387
	c-9.44-16.756-26.895-24.721-44.092-31.205c-14.032-5.285-27.769-11.756-39.311-20.391c-1.749,45.162,5.936,69.436,15.424,80.982
	c25.779,31.373,46.563,26.732,66.821,45.883C320.462,393.414,282.522,357.609,282.522,357.609z"/>
<path fill="#A5CD39" d="M517.113,193.508c-20.501,15.616-51.307,21.295-69.571,38.523c-17.146,16.184-18.573,40.691-9.201,60.969
	c2.426-17.049,19.867-42.139,50.76-60.628c-22.432,25.872-36.979,42.69-44.645,70.733c2.708-0.527,26.559-5.396,40.159-15.676
	C520.276,260.474,520.158,217.14,517.113,193.508z"/>
<path fill="#A5CD39" d="M521.883,435.846c-20.998,1.773-48.305,20.92-50.781,43.537c-0.442,0.371-0.869,0.715-1.275,1.047
	c24.62,3.742,50.466-11.035,57.935-16.787c-14.251,22.857-47.881,31.094-65.258,25.182c22.26,22.545,62.963,17.164,79.141-9.029
	c9.913-16.055,15.587-34.914,36.254-39.955C561.555,436.549,545.033,433.889,521.883,435.846z"/>
<path fill="#A5CD39" d="M292.742,272.121c-9.213-13.696-17.157-23.445-32.977-40.813c19.925,11.882,44.094,33.968,56.511,63.362
	c0.104-0.576,0.201-1.158,0.309-1.756c3.637-19.686-2.146-32.026-9.862-43.72c-16.649-25.229-67.006-36.04-69.286-63.966
	c0,0-15.655,31.662-5.194,72.782c6.787,26.688,37.506,41.981,56.421,50.228c9.347,4.082,23.93,5.322,29.306,13.715
	c-0.146-0.518-0.29-1.016-0.423-1.51C306.902,299.436,299.851,282.684,292.742,272.121z"/>
<path fill="#A5CD39" d="M185.006,323.596c18.432,23.113,31.814,32.748,44.815,42.809c-0.751-13.105,5.78-32.814-5.805-50.117
	c-6.125-9.141-19.036-13.355-28.913-17.525c-9.186-3.889-18.853-10.359-29.273-17.814c-7.146,31.48-0.879,61.355,12.063,74.992
	c17.343,18.277,35.337,19.295,48.33,19.418C210.515,365.92,195.184,347.949,185.006,323.596z"/>
<path fill="#A5CD39" d="M581.337,289.117c-40.949,12.26-60.127,30.188-54.271,74.811c8.733-12.584,25.003-25.209,38.477-43.945
	c-10.552,23.389-20.281,39.154-34.699,55.783c14.18-1.734,39.768-8.311,49.556-29.461
	C587.391,331.191,585.443,307.359,581.337,289.117z"/>
<path fill="#A5CD39" d="M334.828,182.09c-11.343-16.739-53.675-23.266-53.675-23.266s-5.653,36.658,14.75,56.588
	c12.409,12.124,28.286,13.157,37.787,30.416c0.097-0.146,0.184-0.288,0.278-0.437c-4.122-37.502-23.471-56.516-30.68-63.826
	c16.118,8.113,33.402,28.691,35.322,55.021c2.869-7.243,4.088-14.962,5.072-21.722C345.324,203.673,340.749,190.833,334.828,182.09z
	"/>
<path fill="#A5CD39" d="M383.106,208.446c-33.65,40.108-49.07,64.995-49.915,101.778c-1.018,44.154,40.574,62.4,43.738,63.729
	c-7.811-18.449-23.152-65.482-1.095-118.128c-10.358,60.401,3.907,91.858,15.158,111.267c7.343-4.658,16.111-11.895,22.397-22.438
	C445.173,291.342,394.857,245.275,383.106,208.446z"/>
<path fill="#A5CD39" d="M425.646,145.385c0.5-1.398-24.434,20.111-26.786,49.283c-1.471,18.221,7.552,27.26,17.337,40.55
	c-2.979-19.252-0.984-42.173,3.555-55.863c-0.627,12.662,1.852,38.027,3.512,51.063c7.587-8.931,19.298-17.313,20.328-31.146
	C445.103,179.127,432.451,161.573,425.646,145.385z"/>
</svg>
