<?xml version="1.0" encoding="utf-8"?>
<!-- Generator: Adobe Illustrator 15.0.2, SVG Export Plug-In . SVG Version: 6.00 Build 0)  -->
<!DOCTYPE svg PUBLIC "-//W3C//DTD SVG 1.1//EN" "http://www.w3.org/Graphics/SVG/1.1/DTD/svg11.dtd">
<svg version="1.1" xmlns="http://www.w3.org/2000/svg" xmlns:xlink="http://www.w3.org/1999/xlink" x="0px" y="0px" width="3000px"
	 height="3000px" viewBox="0 0 3000 3000" enable-background="new 0 0 3000 3000" xml:space="preserve">
<g id="Layer_1">
	<path fill="#A4CD39" d="M2461.423,1333.932c-12,26.344-28,49.5-48,69.5s-43.344,35.844-70,47.5c-26.672,11.672-54.672,17.5-84,17.5
		h-138v287h-100v-730h219c36.656,0,69.828,5.844,99.5,17.5c29.656,11.672,54.828,27.5,75.5,47.5c20.656,20,36.5,43.672,47.5,71
		c11,27.344,16.5,57,16.5,89C2479.423,1279.776,2473.423,1307.604,2461.423,1333.932z M2335.423,1152.682
		c-26.672-21.5-63.344-32.25-110-32.25h-104v253h110c42,0,76.5-11.078,103.5-33.234s40.5-54.062,40.5-95.75
		C2375.423,1204.76,2362.079,1174.182,2335.423,1152.682z"/>
	<text transform="matrix(1 0 0 1 669.1768 1895.208)"><tspan x="0" y="0" fill="#FAA31B" font-family="'TwCenMT-Regular'" font-size="100" letter-spacing="23">Oregon</tspan><tspan x="529.797" y="0" font-family="'TwCenMT-Regular'" font-size="100" letter-spacing="23"> </tspan><tspan x="580.385" y="0" fill="#35BDEE" font-family="'TwCenMT-Regular'" font-size="100" letter-spacing="23">Wellness</tspan><tspan x="1195.636" y="0" font-family="'TwCenMT-Regular'" font-size="100" letter-spacing="23"> </tspan><tspan x="1246.224" y="0" fill="#A5CD39" font-family="'TwCenMT-Regular'" font-size="100" letter-spacing="23">Partners</tspan></text>
</g>
<g id="Layer_2">
	<g>
		<path fill="#38BDEE" d="M1914.736,1755.85h-68l-148-487c-3.344-9.328-6.344-21.656-9-37c-3.344,16.672-6.344,29-9,37l-151,487h-66
			l-192-730h98l127,479c1.328,6.672,3.328,17,6,31c3.328-14.656,6-25.328,8-32l151-478h66l146,482c1.328,5.344,3.328,15,6,29
			c2.656-14,4.656-24,6-30l136-481h97L1914.736,1755.85z"/>
	</g>
</g>
<g id="Layer_2_copy">
	<g>
		<path fill="#FAA31D" d="M1388.226,1239.796c-18.344-46-44-86-77-120s-72.672-60.656-119-80c-46.344-19.328-97.844-29-154.5-29
			c-52.672,0-101.672,9.5-147,28.5c-45.344,19-84.5,45.344-117.5,79c-33,33.672-58.844,73.344-77.5,119
			c-18.672,45.672-28,95.172-28,148.5c0,55.344,9.656,106.172,29,152.5c19.328,46.344,46,86.172,80,119.5
			c34,33.344,73.828,59.5,119.5,78.5c16.494,6.863,33.413,12.457,50.74,16.828c0.693-1.863,1.42-3.717,2.192-5.555
			c6.045-14.4,12.785-28.455,19.095-42.721c2.968-7.617,5.448-15.389,6.896-23.471c1.334-7.447,5.641-14.678,11.136-20.662
			c-15.88-3.469-31.405-8.424-46.559-14.92c-32.672-14-61.5-33.5-86.5-58.5s-44.844-54.656-59.5-89
			c-14.672-34.328-22-71.828-22-112.5c0-40,6.5-77,19.5-111s31.156-63.156,54.5-87.5c23.328-24.328,51.5-43.5,84.5-57.5
			s69.156-21,108.5-21c40,0,76.828,7,110.5,21c33.656,14,62.5,33.172,86.5,57.5c24,24.344,42.656,53.344,56,87
			c13.328,33.672,20,70.172,20,109.5c0,44-7.344,83.344-22,118c-14.672,34.672-34.344,64.344-59,89
			c-24.672,24.672-53.172,43.5-85.5,56.5c-19.015,7.643-38.666,13.008-58.943,16.15c10.589,23.248,19.161,47.244,28.423,71.031
			c2.825,7.256,5.646,14.553,8.298,21.895c22.211-4.801,43.787-11.652,64.722-20.576c45.328-19.328,84.828-46,118.5-80
			c33.656-34,60.328-73.828,80-119.5c19.656-45.657,29.5-95.157,29.5-148.5C1415.726,1335.14,1406.554,1285.796,1388.226,1239.796z"
			/>
	</g>
</g>
<g id="Layer_4">
	<g id="tree1_1_">
		<g>
			<path fill="#FAA31D" d="M890.695,1407.294c0,0,54.517,52.828,90.375,92.351c30.544,33.654,33.776,42.218,28.143,59.634
				c-8.697,26.912-59.646,183.754-59.646,183.754s47.261-69.918,59.258-85.174c14.827-18.867,24.122-30.078,35.01-28.738
				c10.341-0.064,15.492,7.689,25.624,24.203c9.357,15.258,48.686,89.709,48.686,89.709s-33.336-166.131-33.667-186.16
				c-0.525-31.719,23.926-59.85,41.81-85.322c13.565-19.321,59.379-86.345,59.379-86.345s-66.748,62.339-93.26,85.042
				c-12.603,10.792-23.702,15.979-33.494,17.671c-24.478,4.235-39.875-4.77-68.223-19.654
				C962.342,1453.386,890.695,1407.294,890.695,1407.294z"/>
			<path fill="#FAA31D" d="M1077.85,1436.541c-1.297,18.108-17.024,31.743-35.139,30.454c-18.106-1.293-31.745-17.024-30.451-35.14
				c1.29-18.105,17.023-31.74,35.129-30.451C1065.505,1402.701,1079.138,1418.428,1077.85,1436.541z"/>
		</g>
		<g>
			<path fill="#A5CD39" d="M858.991,1465.172c29.43,11.731,57.467,12.799,74.048,11.819c-8.854-16.574-24.448-30.355-43.624-33.726
				c-20.601-3.625-42.963,1.277-60.638-10.218c5.667,19.08,13.44,44.918,34.41,55.612c18.653,9.519,46.107,15.058,72.559-0.693
				C915.97,1487.683,883.462,1485.464,858.991,1465.172z"/>
			<path fill="#A5CD39" d="M1134.306,1549.789c12.027,4.143,32.766,1.086,32.766,1.086s-3.916-21.486-15.784-27.053
				c-9.799-4.59-26.255-5.32-36.546-3.662C1114.806,1531.254,1118.88,1544.477,1134.306,1549.789z"/>
			<path fill="#A5CD39" d="M1188.857,1421.931c28.982,21.725,44.304-2.723,67.936-6.619c-9.825-6.704-17.21-13.31-31.517-15.638
				C1205.745,1396.494,1195.439,1408.57,1188.857,1421.931z"/>
			<path fill="#A5CD39" d="M980.337,1527.457c-19.312,11.291-22.098,22.699-15.176,42.879c4.432-7.066,14.545-7.271,18.967-17.041
				C986.899,1547.156,987.197,1534.9,980.337,1527.457z"/>
			<path fill="#A5CD39" d="M971.839,1509.709c-31.836-8.027-52.397,2.83-65.906,35.729c13.544-3.553,25.377,2.039,39.042-4.809
				C960.419,1532.902,961.979,1517.393,971.839,1509.709z"/>
			<path fill="#A5CD39" d="M884.099,1418.9c-14.521,0.059-20.736,8.045-35.86,1.401c-9.127-4-17.198-10.275-25.542-21.954
				c7.734-4.793,28.774-13.206,42.01-3.307C875.639,1403.222,879.598,1409.401,884.099,1418.9z"/>
			<path fill="#A5CD39" d="M1050.677,1185.576c0.394-15.731-6.313-25.191-19.901-35.065c-16.606,27.994-18.686,36.757,3.38,67.537
				C1034.156,1218.047,1050.28,1201.067,1050.677,1185.576z"/>
			<path fill="#A5CD39" d="M888.631,1295.675c-1.687-14.891,1.814-36.984-35.833-39.301
				C860.699,1265.757,852.628,1289.379,888.631,1295.675z"/>
			<path fill="#A5CD39" d="M1191.447,1304.195c-4.429-17.064-2.8-45.664,36.516-49.159
				C1229.162,1295.481,1203.02,1293.204,1191.447,1304.195z"/>
			<path fill="#A5CD39" d="M1124.341,1216.689c-2.661-11.883-4.527-34.208,27.034-36.397
				C1144.462,1188.964,1155.228,1213.337,1124.341,1216.689z"/>
			<path fill="#A5CD39" d="M1177.006,1303.167c-21.404,27.019-70.599,19.444-87.747,65.885c-4.536,12.284-3.025,34.733-0.069,44.937
				c10.661-39.322,39.672-57.793,54.426-68.25c-13.548,16.829-44.423,48.626-49.204,88.811
				c15.431-18.317,44.344-24.828,66.995-53.421C1179.202,1358.671,1179.322,1323.823,1177.006,1303.167z"/>
			<path fill="#A5CD39" d="M950.248,1368.405c0,0,36.654,15.423,43.765,47.049c3.453-16.444,8.068-32.358-1.52-49.387
				c-9.44-16.755-26.894-24.72-44.092-31.204c-14.032-5.286-27.768-11.756-39.31-20.391c-1.749,45.162,5.935,69.436,15.424,80.982
				c25.779,31.374,46.562,26.732,66.821,45.884C988.188,1404.211,950.248,1368.405,950.248,1368.405z"/>
			<path fill="#A5CD39" d="M1184.839,1204.304c-20.501,15.616-51.307,21.295-69.571,38.523
				c-17.147,16.184-18.574,40.693-9.201,60.97c2.425-17.05,19.867-42.14,50.759-60.629c-22.431,25.872-36.978,42.692-44.644,70.735
				c2.708-0.528,26.558-5.398,40.159-15.677C1188.002,1271.269,1187.884,1227.935,1184.839,1204.304z"/>
			<path fill="#A5CD39" d="M1189.608,1446.643c-20.998,1.772-48.304,20.919-50.781,43.537c-0.442,0.371-0.869,0.715-1.275,1.047
				c24.62,3.742,50.466-11.035,57.934-16.788c-14.251,22.857-47.881,31.094-65.257,25.182c22.259,22.545,62.962,17.163,79.14-9.029
				c9.913-16.055,15.587-34.914,36.254-39.956C1229.28,1447.346,1212.759,1444.685,1189.608,1446.643z"/>
			<path fill="#A5CD39" d="M960.468,1282.918c-9.213-13.697-17.157-23.446-32.977-40.814c19.925,11.881,44.094,33.967,56.511,63.362
				c0.104-0.576,0.201-1.157,0.309-1.755c3.636-19.687-2.146-32.028-9.863-43.721c-16.649-25.229-67.006-36.04-69.286-63.966
				c0,0-15.655,31.662-5.194,72.782c6.787,26.689,37.506,41.982,56.421,50.228c9.346,4.083,23.929,5.323,29.305,13.715
				c-0.146-0.517-0.29-1.016-0.423-1.509C974.628,1310.232,967.576,1293.481,960.468,1282.918z"/>
			<path fill="#A5CD39" d="M852.731,1334.392c18.432,23.113,31.815,32.748,44.816,42.808c-0.751-13.104,5.78-32.813-5.805-50.116
				c-6.125-9.142-19.036-13.355-28.913-17.525c-9.185-3.89-18.852-10.361-29.273-17.816c-7.147,31.482-0.879,61.357,12.062,74.993
				c17.343,18.278,35.337,19.294,48.33,19.418C878.24,1376.716,862.909,1358.745,852.731,1334.392z"/>
			<path fill="#A5CD39" d="M1249.062,1299.914c-40.949,12.259-60.126,30.187-54.271,74.811c8.733-12.584,25.003-25.21,38.477-43.947
				c-10.552,23.39-20.282,39.155-34.7,55.784c14.18-1.734,39.768-8.311,49.556-29.46
				C1255.116,1341.987,1253.169,1318.156,1249.062,1299.914z"/>
			<path fill="#A5CD39" d="M1002.554,1192.886c-11.343-16.739-53.675-23.266-53.675-23.266s-5.653,36.658,14.75,56.588
				c12.409,12.124,28.286,13.157,37.787,30.416c0.097-0.146,0.184-0.288,0.278-0.437c-4.122-37.501-23.47-56.515-30.679-63.826
				c16.118,8.114,33.402,28.692,35.322,55.022c2.869-7.243,4.088-14.962,5.072-21.722
				C1013.05,1214.469,1008.475,1201.629,1002.554,1192.886z"/>
			<path fill="#A5CD39" d="M1050.832,1219.242c-33.65,40.109-49.07,64.995-49.915,101.779c-1.018,44.154,40.574,62.4,43.738,63.728
				c-7.81-18.448-23.152-65.481-1.095-118.128c-10.358,60.402,3.908,91.859,15.159,111.268c7.342-4.658,16.111-11.895,22.397-22.439
				C1112.898,1302.138,1062.583,1256.071,1050.832,1219.242z"/>
			<path fill="#A5CD39" d="M1093.371,1156.181c0.5-1.399-24.434,20.111-26.786,49.283c-1.471,18.221,7.552,27.26,17.337,40.55
				c-2.979-19.252-0.984-42.173,3.555-55.864c-0.627,12.662,1.851,38.028,3.511,51.063c7.587-8.931,19.298-17.313,20.328-31.146
				C1112.828,1189.923,1100.177,1172.369,1093.371,1156.181z"/>
		</g>
	</g>
</g>
<g id="Layer_5">
	<rect x="5241.464" y="2642.437" fill="none" width="886.089" height="842.943"/>
	<text transform="matrix(1 0 0 1 5241.4648 3372.4326)" font-family="'Nobel-Regular'" font-size="1000">O</text>
</g>
</svg>
